<svg width="408" height="472" viewBox="0 0 408 472" fill="none" xmlns="http://www.w3.org/2000/svg">
<path d="M20 11H7.83L13.42 5.41L12 4L4 12L12 20L13.41 18.59L7.83 13H20V11Z" fill="black"/>
<path d="M83 6.41L81.59 5L76 10.59L70.41 5L69 6.41L74.59 12L69 17.59L70.41 19L76 13.41L81.59 19L83 17.59L77.41 12L83 6.41Z" fill="black"/>
<path d="M150 4C150 2.9 149.1 2 148 2H132C130.9 2 130 2.9 130 4V16C130 17.1 130.9 18 132 18H146L150 22V4ZM148 17.17L146.83 16H132V4H148V17.17ZM141 5H139V9H135V11H139V15H141V11H145V9H141V5Z" fill="black"/>
<path d="M204 2C198.48 2 194 6.48 194 12C194 17.52 198.48 22 204 22C209.52 22 214 17.52 214 12C214 6.48 209.52 2 204 2ZM196 12C196 7.58 199.58 4 204 4C205.85 4 207.55 4.63 208.9 5.69L197.69 16.9C196.63 15.55 196 13.85 196 12ZM204 20C202.15 20 200.45 19.37 199.1 18.31L210.31 7.1C211.37 8.45 212 10.15 212 12C212 16.42 208.42 20 204 20Z" fill="black"/>
<path d="M260 4H276V16H261.17L260 17.17V4ZM260 2C258.9 2 258.01 2.9 258.01 4L258 22L262 18H276C277.1 18 278 17.1 278 16V4C278 2.9 277.1 2 276 2H260ZM262 12H274V14H262V12ZM262 9H274V11H262V9ZM262 6H274V8H262V6Z" fill="black"/>
<path d="M340 2H324C322.9 2 322 2.9 322 4V22L326 18H340C341.1 18 342 17.1 342 16V4C342 2.9 341.1 2 340 2ZM340 16H325.17L324 17.17V4H340V16ZM331 5H333V11H331V5ZM331 13H333V15H331V13Z" fill="black"/>
<path d="M399.5 14H398.71L398.43 13.73C399.41 12.59 400 11.11 400 9.5C400 5.91 397.09 3 393.5 3C389.91 3 387 5.91 387 9.5C387 13.09 389.91 16 393.5 16C395.11 16 396.59 15.41 397.73 14.43L398 14.71V15.5L403 20.49L404.49 19L399.5 14ZM393.5 14C391.01 14 389 11.99 389 9.5C389 7.01 391.01 5 393.5 5C395.99 5 398 7.01 398 9.5C398 11.99 395.99 14 393.5 14Z" fill="black"/>
<path d="M12 65L3 69V75C3 80.55 6.84 85.74 12 87C17.16 85.74 21 80.55 21 75V69L12 65ZM10 81L6 77L7.41 75.59L10 78.17L16.59 71.58L18 73L10 81Z" fill="#A6B06A"/>
<path d="M84 68H68C66.89 68 66.01 68.89 66.01 70L66 82C66 83.11 66.89 84 68 84H84C85.11 84 86 83.11 86 82V70C86 68.89 85.11 68 84 68ZM72.5 79H71.3L68.75 75.5V79H67.5V73H68.75L71.25 76.5V73H72.5V79ZM77.5 74.26H75V75.38H77.5V76.64H75V77.75H77.5V79H73.5V73H77.5V74.26ZM84.5 78C84.5 78.55 84.05 79 83.5 79H79.5C78.95 79 78.5 78.55 78.5 78V73H79.75V77.51H80.88V73.99H82.13V77.5H83.25V73H84.5V78Z" fill="#8F5BC6"/>
<path d="M151 76L148.56 73.21L148.9 69.52L145.29 68.7L143.4 65.5L140 66.96L136.6 65.5L134.71 68.69L131.1 69.5L131.44 73.2L129 76L131.44 78.79L131.1 82.49L134.71 83.31L136.6 86.5L140 85.03L143.4 86.49L145.29 83.3L148.9 82.48L148.56 78.79L151 76ZM138.09 80.72L134.29 76.91L135.77 75.43L138.09 77.76L143.94 71.89L145.42 73.37L138.09 80.72Z" fill="#58B6C2"/>
<path d="M214 68C214 66.9 213.1 66 212 66H196C194.9 66 194.01 66.9 194.01 68L194 86L198 82H207V74H214V68Z" fill="#5A6CB3"/>
<path d="M214.5 80H212.3L214 76H209V82H211V87L214.5 80Z" fill="#5A6CB3"/>
<path d="M274 71L272.59 69.59L266.25 75.93L267.66 77.34L274 71ZM278.24 69.59L267.66 80.17L263.48 76L262.07 77.41L267.66 83L279.66 71L278.24 69.59ZM256.41 77.41L262 83L263.41 81.59L257.83 76L256.41 77.41Z" fill="#58B6C2"/>
<path d="M339.48 76.35C337.91 72.27 332.32 72.05 333.67 66.12C333.77 65.68 333.3 65.34 332.92 65.57C329.29 67.71 326.68 72 328.87 77.62C329.05 78.08 328.51 78.51 328.12 78.21C326.31 76.84 326.12 74.87 326.28 73.46C326.34 72.94 325.66 72.69 325.37 73.12C324.69 74.16 324 75.84 324 78.37C324.38 83.97 329.11 85.69 330.81 85.91C333.24 86.22 335.87 85.77 337.76 84.04C339.84 82.11 340.6 79.03 339.48 76.35ZM330.2 81.38C331.64 81.03 332.38 79.99 332.58 79.07C332.91 77.64 331.62 76.24 332.49 73.98C332.82 75.85 335.76 77.02 335.76 79.06C335.84 81.59 333.1 83.76 330.2 81.38Z" fill="#C33F31"/>
<path d="M396 76C394.9 76 394 75.1 394 74C394 72.9 394.9 72 396 72C397.1 72 398 72.9 398 74C398 75.1 397.1 76 396 76ZM402 74.2C402 70.57 399.35 68 396 68C392.65 68 390 70.57 390 74.2C390 76.54 391.95 79.64 396 83.34C400.05 79.64 402 76.54 402 74.2ZM396 66C400.2 66 404 69.22 404 74.2C404 77.52 401.33 81.45 396 86C390.67 81.45 388 77.52 388 74.2C388 69.22 391.8 66 396 66Z" fill="black"/>
<path d="M20 142C21.1046 142 22 141.105 22 140C22 138.895 21.1046 138 20 138C18.8954 138 18 138.895 18 140C18 141.105 18.8954 142 20 142Z" fill="black"/>
<path d="M4 142C5.10457 142 6 141.105 6 140C6 138.895 5.10457 138 4 138C2.89543 138 2 138.895 2 140C2 141.105 2.89543 142 4 142Z" fill="black"/>
<path d="M12 150C13.1046 150 14 149.105 14 148C14 146.895 13.1046 146 12 146C10.8954 146 10 146.895 10 148C10 149.105 10.8954 150 12 150Z" fill="black"/>
<path d="M18.3477 132.227L13.9434 136.619L15.3556 138.035L19.7599 133.643L18.3477 132.227Z" fill="black"/>
<path d="M8.32004 137.68L8.63004 138L10.05 136.59L6.03004 132.55H6.02004L5.71004 132.23L4.29004 133.64L8.31004 137.69L8.32004 137.68Z" fill="black"/>
<path d="M15.41 141.94L14 143.35L17.99 147.36L18.34 147.71L19.76 146.3L15.77 142.29L15.41 141.94Z" fill="black"/>
<path d="M8.59023 141.95L4.56023 145.96L4.24023 146.29L5.65023 147.7L9.68023 143.68L10.0102 143.36L8.59023 141.95Z" fill="black"/>
<path d="M12 134C13.1046 134 14 133.105 14 132C14 130.895 13.1046 130 12 130C10.8954 130 10 130.895 10 132C10 133.105 10.8954 134 12 134Z" fill="black"/>
<path d="M85 130H67C65.9 130 65 130.9 65 132V144C65 145.1 65.9 146 67 146H74L72 149V150H80V149L78 146H85C86.1 146 87 145.1 87 144V132C87 130.9 86.1 130 85 130ZM85 142H67V132H85V142Z" fill="black"/>
<path d="M147.43 140.98C147.47 140.66 147.5 140.34 147.5 140C147.5 139.66 147.47 139.34 147.43 139.02L149.54 137.37C149.73 137.22 149.78 136.95 149.66 136.73L147.66 133.27C147.57 133.11 147.4 133.02 147.22 133.02C147.16 133.02 147.1 133.03 147.05 133.05L144.56 134.05C144.04 133.65 143.48 133.32 142.87 133.07L142.49 130.42C142.46 130.18 142.25 130 142 130H138C137.75 130 137.54 130.18 137.51 130.42L137.13 133.07C136.52 133.32 135.96 133.66 135.44 134.05L132.95 133.05C132.89 133.03 132.83 133.02 132.77 133.02C132.6 133.02 132.43 133.11 132.34 133.27L130.34 136.73C130.21 136.95 130.27 137.22 130.46 137.37L132.57 139.02C132.53 139.34 132.5 139.67 132.5 140C132.5 140.33 132.53 140.66 132.57 140.98L130.46 142.63C130.27 142.78 130.22 143.05 130.34 143.27L132.34 146.73C132.43 146.89 132.6 146.98 132.78 146.98C132.84 146.98 132.9 146.97 132.95 146.95L135.44 145.95C135.96 146.35 136.52 146.68 137.13 146.93L137.51 149.58C137.54 149.82 137.75 150 138 150H142C142.25 150 142.46 149.82 142.49 149.58L142.87 146.93C143.48 146.68 144.04 146.34 144.56 145.95L147.05 146.95C147.11 146.97 147.17 146.98 147.23 146.98C147.4 146.98 147.57 146.89 147.66 146.73L149.66 143.27C149.78 143.05 149.73 142.78 149.54 142.63L147.43 140.98V140.98ZM145.45 139.27C145.49 139.58 145.5 139.79 145.5 140C145.5 140.21 145.48 140.43 145.45 140.73L145.31 141.86L146.2 142.56L147.28 143.4L146.58 144.61L145.31 144.1L144.27 143.68L143.37 144.36C142.94 144.68 142.53 144.92 142.12 145.09L141.06 145.52L140.9 146.65L140.7 148H139.3L139.11 146.65L138.95 145.52L137.89 145.09C137.46 144.91 137.06 144.68 136.66 144.38L135.75 143.68L134.69 144.11L133.42 144.62L132.72 143.41L133.8 142.57L134.69 141.87L134.55 140.74C134.52 140.43 134.5 140.2 134.5 140C134.5 139.8 134.52 139.57 134.55 139.27L134.69 138.14L133.8 137.44L132.72 136.6L133.42 135.39L134.69 135.9L135.73 136.32L136.63 135.64C137.06 135.32 137.47 135.08 137.88 134.91L138.94 134.48L139.1 133.35L139.3 132H140.69L140.88 133.35L141.04 134.48L142.1 134.91C142.53 135.09 142.93 135.32 143.33 135.62L144.24 136.32L145.3 135.89L146.57 135.38L147.27 136.59L146.2 137.44L145.31 138.14L145.45 139.27ZM140 136C137.79 136 136 137.79 136 140C136 142.21 137.79 144 140 144C142.21 144 144 142.21 144 140C144 137.79 142.21 136 140 136ZM140 142C138.9 142 138 141.1 138 140C138 138.9 138.9 138 140 138C141.1 138 142 138.9 142 140C142 141.1 141.1 142 140 142Z" fill="black"/>
<path d="M201.37 133.51C201.19 134.15 201.1 134.82 201.1 135.5C201.1 139.58 204.42 142.9 208.5 142.9C209.18 142.9 209.85 142.81 210.49 142.63C209.45 145.19 206.93 147 204 147C200.14 147 197 143.86 197 140C197 137.07 198.81 134.55 201.37 133.51ZM204 131C199.03 131 195 135.03 195 140C195 144.97 199.03 149 204 149C208.97 149 213 144.97 213 140C213 139.54 212.96 139.08 212.9 138.64C211.92 140.01 210.32 140.9 208.5 140.9C205.52 140.9 203.1 138.48 203.1 135.5C203.1 133.69 203.99 132.08 205.36 131.1C204.92 131.04 204.46 131 204 131Z" fill="black"/>
<path d="M268 130C262.48 130 258 134.48 258 140C258 145.52 262.48 150 268 150C273.52 150 278 145.52 278 140C278 134.48 273.52 130 268 130ZM260 140C260 139.39 260.08 138.79 260.21 138.22L264.99 143V144C264.99 145.1 265.89 146 266.99 146V147.93C263.06 147.43 260 144.07 260 140ZM273.89 145.4C273.63 144.59 272.89 144 271.99 144H270.99V141C270.99 140.45 270.54 140 269.99 140H263.99V138H265.99C266.54 138 266.99 137.55 266.99 137V135H268.99C270.09 135 270.99 134.1 270.99 133V132.59C273.92 133.77 276 136.65 276 140C276 142.08 275.19 143.98 273.89 145.4Z" fill="black"/>
<path d="M332 134C333.1 134 334 134.9 334 136C334 137.1 333.1 138 332 138C330.9 138 330 137.1 330 136C330 134.9 330.9 134 332 134ZM332 144C334.7 144 337.8 145.29 338 146H326C326.23 145.28 329.31 144 332 144ZM332 132C329.79 132 328 133.79 328 136C328 138.21 329.79 140 332 140C334.21 140 336 138.21 336 136C336 133.79 334.21 132 332 132ZM332 142C329.33 142 324 143.34 324 146V148H340V146C340 143.34 334.67 142 332 142Z" fill="black"/>
<path d="M387 132V129H389V132H392V134H389V137H387V134H384V132H387ZM390 138V135H393V132H400L401.83 134H405C406.1 134 407 134.9 407 136V148C407 149.1 406.1 150 405 150H389C387.9 150 387 149.1 387 148V138H390ZM397 147C399.76 147 402 144.76 402 142C402 139.24 399.76 137 397 137C394.24 137 392 139.24 392 142C392 144.76 394.24 147 397 147ZM393.8 142C393.8 143.77 395.23 145.2 397 145.2C398.77 145.2 400.2 143.77 400.2 142C400.2 140.23 398.77 138.8 397 138.8C395.23 138.8 393.8 140.23 393.8 142Z" fill="black"/>
<path d="M6.99969 198H16.9997L11.9897 204.3L6.99969 198ZM4.24969 197.61C6.26969 200.2 9.99969 205 9.99969 205V211C9.99969 211.55 10.4497 212 10.9997 212H12.9997C13.5497 212 13.9997 211.55 13.9997 211V205C13.9997 205 17.7197 200.2 19.7397 197.61C20.2497 196.95 19.7797 196 18.9497 196H5.03969C4.20969 196 3.73969 196.95 4.24969 197.61Z" fill="black"/>
<path d="M70.2305 212.23L72.0005 214L82.0005 204L72.0005 194L70.2305 195.77L78.4605 204L70.2305 212.23Z" fill="black"/>
<path d="M142.59 200L140 202.59L137.41 200L136 201.41L138.59 204L136 206.59L137.41 208L140 205.41L142.59 208L144 206.59L141.41 204L144 201.41L142.59 200ZM140 194C134.47 194 130 198.47 130 204C130 209.53 134.47 214 140 214C145.53 214 150 209.53 150 204C150 198.47 145.53 194 140 194ZM140 212C135.59 212 132 208.41 132 204C132 199.59 135.59 196 140 196C144.41 196 148 199.59 148 204C148 208.41 144.41 212 140 212Z" fill="black"/>
<path d="M204 198C205.1 198 206 198.9 206 200C206 201.1 205.1 202 204 202C202.9 202 202 201.1 202 200C202 198.9 202.9 198 204 198ZM204 208C206.7 208 209.8 209.29 210 210H198C198.23 209.28 201.31 208 204 208ZM204 196C201.79 196 200 197.79 200 200C200 202.21 201.79 204 204 204C206.21 204 208 202.21 208 200C208 197.79 206.21 196 204 196ZM204 206C201.33 206 196 207.34 196 210V212H212V210C212 207.34 206.67 206 204 206Z" fill="black"/>
<path d="M270.06 201.02L270.98 201.94L261.92 211H261V210.08L270.06 201.02V201.02ZM273.66 195C273.41 195 273.15 195.1 272.96 195.29L271.13 197.12L274.88 200.87L276.71 199.04C277.1 198.65 277.1 198.02 276.71 197.63L274.37 195.29C274.17 195.09 273.92 195 273.66 195V195ZM270.06 198.19L259 209.25V213H262.75L273.81 201.94L270.06 198.19V198.19Z" fill="black"/>
<path d="M332 198.5C335.79 198.5 339.17 200.63 340.82 204C339.17 207.37 335.8 209.5 332 209.5C328.2 209.5 324.83 207.37 323.18 204C324.83 200.63 328.21 198.5 332 198.5ZM332 196.5C327 196.5 322.73 199.61 321 204C322.73 208.39 327 211.5 332 211.5C337 211.5 341.27 208.39 343 204C341.27 199.61 337 196.5 332 196.5ZM332 201.5C333.38 201.5 334.5 202.62 334.5 204C334.5 205.38 333.38 206.5 332 206.5C330.62 206.5 329.5 205.38 329.5 204C329.5 202.62 330.62 201.5 332 201.5ZM332 199.5C329.52 199.5 327.5 201.52 327.5 204C327.5 206.48 329.52 208.5 332 208.5C334.48 208.5 336.5 206.48 336.5 204C336.5 201.52 334.48 199.5 332 199.5Z" fill="black"/>
<path d="M396 198C399.79 198 403.17 200.13 404.82 203.5C404.23 204.72 403.4 205.77 402.41 206.62L403.82 208.03C405.21 206.8 406.31 205.26 407 203.5C405.27 199.11 401 196 396 196C394.73 196 393.51 196.2 392.36 196.57L394.01 198.22C394.66 198.09 395.32 198 396 198ZM394.93 199.14L397 201.21C397.57 201.46 398.03 201.92 398.28 202.49L400.35 204.56C400.43 204.22 400.49 203.86 400.49 203.49C400.5 201.01 398.48 199 396 199C395.63 199 395.28 199.05 394.93 199.14ZM386.01 195.87L388.69 198.55C387.06 199.83 385.77 201.53 385 203.5C386.73 207.89 391 211 396 211C397.52 211 398.98 210.71 400.32 210.18L403.74 213.6L405.15 212.19L387.42 194.45L386.01 195.87ZM393.51 203.37L396.12 205.98C396.08 205.99 396.04 206 396 206C394.62 206 393.5 204.88 393.5 203.5C393.5 203.45 393.51 203.42 393.51 203.37V203.37ZM390.11 199.97L391.86 201.72C391.63 202.27 391.5 202.87 391.5 203.5C391.5 205.98 393.52 208 396 208C396.63 208 397.23 207.87 397.77 207.64L398.75 208.62C397.87 208.86 396.95 209 396 209C392.21 209 388.83 206.87 387.18 203.5C387.88 202.07 388.9 200.89 390.11 199.97Z" fill="black"/>
<path d="M18.6 275.5H21V277.5H15V271.5H17V274.23C18.83 272.76 20 270.52 20 268C20 263.93 16.94 260.56 13 260.07V258.05C18.05 258.55 22 262.81 22 268C22 270.99 20.68 273.67 18.6 275.5ZM4 268C4 265.48 5.17 263.23 7 261.77V264.5H9V258.5H3V260.5H5.4C3.32 262.33 2 265.01 2 268C2 273.19 5.95 277.45 11 277.95V275.93C7.06 275.44 4 272.07 4 268Z" fill="black"/>
<path d="M80.5 259C78.76 259 77.09 259.81 76 261.09C74.91 259.81 73.24 259 71.5 259C68.42 259 66 261.42 66 264.5C66 268.28 69.4 271.36 74.55 276.04L76 277.35L77.45 276.03C82.6 271.36 86 268.28 86 264.5C86 261.42 83.58 259 80.5 259ZM76.1 274.55L76 274.65L75.9 274.55C71.14 270.24 68 267.39 68 264.5C68 262.5 69.5 261 71.5 261C73.04 261 74.54 261.99 75.07 263.36H76.94C77.46 261.99 78.96 261 80.5 261C82.5 261 84 262.5 84 264.5C84 267.39 80.86 270.24 76.1 274.55Z" fill="black"/>
<path d="M140 277.35L138.55 276.03C133.4 271.36 130 268.28 130 264.5C130 261.42 132.42 259 135.5 259C137.24 259 138.91 259.81 140 261.09C141.09 259.81 142.76 259 144.5 259C147.58 259 150 261.42 150 264.5C150 268.28 146.6 271.36 141.45 276.04L140 277.35Z" fill="#C33F31"/>
<g opacity="0.7">
<path d="M206.12 261L207.95 263H212V275H196V263H200.05L201.88 261H206.12ZM207 259H201L199.17 261H196C194.9 261 194 261.9 194 263V275C194 276.1 194.9 277 196 277H212C213.1 277 214 276.1 214 275V263C214 261.9 213.1 261 212 261H208.83L207 259ZM204 266C205.65 266 207 267.35 207 269C207 270.65 205.65 272 204 272C202.35 272 201 270.65 201 269C201 267.35 202.35 266 204 266ZM204 264C201.24 264 199 266.24 199 269C199 271.76 201.24 274 204 274C206.76 274 209 271.76 209 269C209 266.24 206.76 264 204 264Z" fill="black"/>
</g>
<path d="M265 272.2L260.8 268L259.4 269.4L265 275L277 263L275.6 261.6L265 272.2Z" fill="black"/>
<g opacity="0.7">
<path d="M339 261V275H325V261H339ZM339 259H325C323.9 259 323 259.9 323 261V275C323 276.1 323.9 277 325 277H339C340.1 277 341 276.1 341 275V261C341 259.9 340.1 259 339 259ZM334.14 267.86L331.14 271.73L329 269.14L326 273H338L334.14 267.86Z" fill="black"/>
</g>
<path d="M404 261H400.83L399 259H393L391.17 261H388C386.9 261 386 261.9 386 263V275C386 276.1 386.9 277 388 277H404C405.1 277 406 276.1 406 275V263C406 261.9 405.1 261 404 261ZM404 275H388V263H391.17H392.05L392.64 262.35L393.88 261H398.12L399.36 262.35L399.95 263H400.83H404V275Z" fill="black"/>
<path d="M396 273C393.79 273 392 271.21 392 269H394L391.5 266.5L389 269H391C391 271.76 393.24 274 396 274C396.86 274 397.65 273.76 398.36 273.38L397.62 272.64C397.13 272.87 396.58 273 396 273Z" fill="black"/>
<path d="M396 264C395.14 264 394.35 264.24 393.64 264.62L394.38 265.35C394.87 265.13 395.42 265 396 265C398.21 265 400 266.79 400 269H398L400.5 271.5L403 269H401C401 266.24 398.76 264 396 264Z" fill="black"/>
<path d="M17 330H13.39L15.67 332.28L17 330ZM17 322H7V323.61L13.13 329.74L17 322ZM3.41 322.86L2 324.27L7 329.27V333H10V342L13.58 335.85L17.73 340L19.14 338.59L3.41 322.86Z" fill="black"/>
<path d="M68.01 326.03L75.52 329.25L68 328.25L68.01 326.03ZM75.51 334.75L68 337.97V335.75L75.51 334.75ZM66.01 323L66 330L81 332L66 334L66.01 341L87 332L66.01 323Z" fill="black"/>
<path d="M132.34 322.93L130.93 324.34L135.29 328.7L135 329H131V335H135L140 340V333.41L144.18 337.59C143.53 338.08 142.8 338.47 142 338.7V340.76C143.34 340.46 144.57 339.84 145.61 339.01L147.66 341.06L149.07 339.65L132.34 322.93ZM138 335.17L135.83 333H133V331H135.83L136.71 330.12L138 331.41V335.17ZM147 332C147 332.82 146.85 333.61 146.59 334.34L148.12 335.87C148.68 334.7 149 333.39 149 332C149 327.72 146.01 324.14 142 323.23V325.29C144.89 326.15 147 328.83 147 332ZM140 324L138.12 325.88L140 327.76V324ZM144.5 332C144.5 330.23 143.48 328.71 142 327.97V329.76L144.48 332.24C144.49 332.16 144.5 332.08 144.5 332Z" fill="black"/>
<path d="M208 329V339H200V329H208ZM206.5 323H201.5L200.5 324H197V326H211V324H207.5L206.5 323ZM210 327H198V339C198 340.1 198.9 341 200 341H208C209.1 341 210 340.1 210 339V327Z" fill="#E0796E"/>
<path d="M262 339H266V325H262V339ZM270 325V339H274V325H270Z" fill="black"/>
<path d="M339 323H325L322 329L332 341L342 329L339 323ZM329.62 328L331.12 325H332.88L334.38 328H329.62ZM331 330V336.68L325.44 330H331ZM333 330H338.56L333 336.68V330ZM339.26 328H336.61L335.11 325H337.76L339.26 328ZM326.24 325H328.89L327.39 328H324.74L326.24 325Z" fill="#E8B643"/>
<path d="M396 332C398.21 332 400 330.21 400 328C400 325.79 398.21 324 396 324C393.79 324 392 325.79 392 328C392 330.21 393.79 332 396 332ZM396 334C393.33 334 388 335.34 388 338V340H404V338C404 335.34 398.67 334 396 334Z" fill="black"/>
<path d="M12 392C13.1 392 14 391.1 14 390C14 388.9 13.1 388 12 388C10.9 388 10 388.9 10 390C10 391.1 10.9 392 12 392ZM12 394C10.9 394 10 394.9 10 396C10 397.1 10.9 398 12 398C13.1 398 14 397.1 14 396C14 394.9 13.1 394 12 394ZM12 400C10.9 400 10 400.9 10 402C10 403.1 10.9 404 12 404C13.1 404 14 403.1 14 402C14 400.9 13.1 400 12 400Z" fill="black"/>
<path d="M76 406C77.1 406 78 405.1 78 404H74C74 405.1 74.9 406 76 406ZM82 400V395C82 391.93 80.37 389.36 77.5 388.68V388C77.5 387.17 76.83 386.5 76 386.5C75.17 386.5 74.5 387.17 74.5 388V388.68C71.64 389.36 70 391.92 70 395V400L68 402V403H84V402L82 400ZM80 401H72V395C72 392.52 73.51 390.5 76 390.5C78.49 390.5 80 392.52 80 395V401Z" fill="black"/>
<path d="M147 397H141V403H139V397H133V395H139V389H141V395H147V397Z" fill="black"/>
<path d="M210 392H209V390C209 387.24 206.76 385 204 385C201.24 385 199 387.24 199 390V392H198C196.9 392 196 392.9 196 394V404C196 405.1 196.9 406 198 406H210C211.1 406 212 405.1 212 404V394C212 392.9 211.1 392 210 392ZM201 390C201 388.34 202.34 387 204 387C205.66 387 207 388.34 207 390V392H201V390ZM210 404H198V394H210V404ZM204 401C205.1 401 206 400.1 206 399C206 397.9 205.1 397 204 397C202.9 397 202 397.9 202 399C202 400.1 202.9 401 204 401Z" fill="black"/>
<path d="M278 396C278 390.48 273.52 386 268 386C262.48 386 258 390.48 258 396C258 401.52 262.48 406 268 406C273.52 406 278 401.52 278 396ZM268 397H264V395H268V392L272 396L268 400V397Z" fill="black" fill-opacity="0.8"/>
<path d="M339 398V390C339 388.9 338.1 388 337 388H323C321.9 388 321 388.9 321 390V398C321 399.1 321.9 400 323 400H337C338.1 400 339 399.1 339 398ZM337 398H323V390H337V398ZM330 391C328.34 391 327 392.34 327 394C327 395.66 328.34 397 330 397C331.66 397 333 395.66 333 394C333 392.34 331.66 391 330 391ZM343 391V402C343 403.1 342.1 404 341 404H324C324 403 324 403.1 324 402H341V391C342.1 391 342 391 343 391Z" fill="black"/>
<path d="M407 395.99L404.56 393.2L404.9 389.51L401.29 388.69L399.4 385.5L396 386.96L392.6 385.5L390.71 388.69L387.1 389.5L387.44 393.2L385 395.99L387.44 398.78L387.1 402.48L390.71 403.3L392.6 406.5L396 405.03L399.4 406.49L401.29 403.3L404.9 402.48L404.56 398.79L407 395.99ZM403.05 397.47L402.49 398.12L402.57 398.97L402.75 400.92L400.85 401.35L400.01 401.54L399.57 402.28L398.58 403.96L396.8 403.19L396 402.85L395.21 403.19L393.43 403.96L392.44 402.29L392 401.55L391.16 401.36L389.26 400.93L389.44 398.97L389.52 398.12L388.96 397.47L387.67 396L388.96 394.52L389.52 393.87L389.43 393.01L389.25 391.07L391.15 390.64L391.99 390.45L392.43 389.71L393.42 388.03L395.2 388.8L396 389.14L396.79 388.8L398.57 388.03L399.56 389.71L400 390.45L400.84 390.64L402.74 391.07L402.56 393.02L402.48 393.87L403.04 394.52L404.33 395.99L403.05 397.47Z" fill="black"/>
<path d="M394.09 397.75L391.77 395.42L390.29 396.91L394.09 400.72L401.43 393.36L399.95 391.87L394.09 397.75Z" fill="black"/>
<path d="M12 450C6.48 450 2 454.48 2 460C2 465.52 6.48 470 12 470C17.52 470 22 465.52 22 460C22 454.48 17.52 450 12 450ZM12 468C7.58 468 4 464.42 4 460C4 455.58 7.58 452 12 452C16.42 452 20 455.58 20 460C20 464.42 16.42 468 12 468Z" fill="#A6B06A"/>
<path d="M12 465C14.7614 465 17 462.761 17 460C17 457.239 14.7614 455 12 455C9.23858 455 7 457.239 7 460C7 462.761 9.23858 465 12 465Z" fill="#A6B06A"/>
<path d="M79 456V464H69V456H79ZM80 454H68C67.45 454 67 454.45 67 455V465C67 465.55 67.45 466 68 466H80C80.55 466 81 465.55 81 465V461.5L85 465.5V454.5L81 458.5V455C81 454.45 80.55 454 80 454Z" fill="black"/>
<path d="M131 466H149V464H131V466ZM131 461H149V459H131V461ZM131 454V456H149V454H131Z" fill="black"/>
<g opacity="0.7">
<path d="M207.15 459.1C207.895 459.1 208.5 458.496 208.5 457.75C208.5 457.004 207.895 456.4 207.15 456.4C206.404 456.4 205.8 457.004 205.8 457.75C205.8 458.496 206.404 459.1 207.15 459.1Z" fill="black"/>
<path d="M200.85 459.1C201.596 459.1 202.2 458.496 202.2 457.75C202.2 457.004 201.596 456.4 200.85 456.4C200.104 456.4 199.5 457.004 199.5 457.75C199.5 458.496 200.104 459.1 200.85 459.1Z" fill="black"/>
<path d="M204 465.4C206.052 465.4 207.798 463.906 208.5 461.8H199.5C200.202 463.906 201.948 465.4 204 465.4Z" fill="black"/>
<path d="M203.991 451C199.023 451 195 455.032 195 460C195 464.968 199.023 469 203.991 469C208.968 469 213 464.968 213 460C213 455.032 208.968 451 203.991 451ZM204 467.2C200.022 467.2 196.8 463.978 196.8 460C196.8 456.022 200.022 452.8 204 452.8C207.978 452.8 211.2 456.022 211.2 460C211.2 463.978 207.978 467.2 204 467.2Z" fill="black"/>
</g>
<g opacity="0.7">
<path d="M268 463C269.66 463 270.99 461.66 270.99 460L271 454C271 452.34 269.66 451 268 451C266.34 451 265 452.34 265 454V460C265 461.66 266.34 463 268 463ZM266.8 453.9C266.8 453.24 267.34 452.7 268 452.7C268.66 452.7 269.2 453.24 269.2 453.9L269.19 460.1C269.19 460.76 268.66 461.3 268 461.3C267.34 461.3 266.8 460.76 266.8 460.1V453.9ZM273.3 460C273.3 463 270.76 465.1 268 465.1C265.24 465.1 262.7 463 262.7 460H261C261 463.41 263.72 466.23 267 466.72V470H269V466.72C272.28 466.24 275 463.42 275 460H273.3Z" fill="black"/>
</g>
<path d="M336.67 461.13C338.04 462.06 339 463.32 339 465V468H343V465C343 462.82 339.43 461.53 336.67 461.13Z" fill="black"/>
<path d="M335 460C337.21 460 339 458.21 339 456C339 453.79 337.21 452 335 452C334.53 452 334.09 452.1 333.67 452.24C334.5 453.27 335 454.58 335 456C335 457.42 334.5 458.73 333.67 459.76C334.09 459.9 334.53 460 335 460Z" fill="black"/>
<path d="M329 460C331.21 460 333 458.21 333 456C333 453.79 331.21 452 329 452C326.79 452 325 453.79 325 456C325 458.21 326.79 460 329 460ZM329 454C330.1 454 331 454.9 331 456C331 457.1 330.1 458 329 458C327.9 458 327 457.1 327 456C327 454.9 327.9 454 329 454Z" fill="black"/>
<path d="M329 461C326.33 461 321 462.34 321 465V468H337V465C337 462.34 331.67 461 329 461ZM335 466H323V465.01C323.2 464.29 326.3 463 329 463C331.7 463 334.8 464.29 335 465V466Z" fill="black"/>
<path d="M404 450H388C386.9 450 386 450.9 386 452V470L390 466H404C405.1 466 406 465.1 406 464V452C406 450.9 405.1 450 404 450ZM404 464H390L388 466V452H404V464ZM391 457H393V459H391V457ZM395 457H397V459H395V457ZM399 457H401V459H399V457Z" fill="black"/>
</svg>
